<svg xmlns="http://www.w3.org/2000/svg" width="64" height="64" viewBox="0 0 64 64" fill="none" stroke="#1c1917" stroke-width="1.5" stroke-linecap="round" stroke-linejoin="round">
<circle cx="32" cy="32" r="16"></circle><circle cx="32" cy="32" r="3" fill="#1c1917" stroke="none"></circle><path d="M32 32 C 27 28, 24 30, 22 26 C 27 25, 29 29, 32 32"></path><path d="M32 32 C 36 28, 34 25, 38 24 C 39 29, 35 30, 32 32"></path><path d="M32 32 C 37 36, 40 34, 41 38 C 36 39, 35 35, 32 32"></path><path d="M32 32 C 28 37, 30 40, 26 41 C 25 36, 29 35, 32 32"></path><line x1="60" y1="54" x2="10" y2="54"></line><path d="M14 50 L8 54 L14 58"></path>
</svg>